<svg width="181" height="48" fill="none" xmlns="http://www.w3.org/2000/svg"><path d="m18.984 28.972 8.63-4.746v12.816l-8.63 5.054V28.972Z" fill="#fff"/><path d="M12.944 24.81 0 31.82l12.944 7.767V24.809Z" fill="#12B8C2"/><path fill-rule="evenodd" clip-rule="evenodd" d="M18.876 23.407 0 12.297v4.961l13.052 7.443v15.101L0 31.928v4.746L18.876 48V23.407ZM36.674 13.591l-14.13 7.766-3.556 1.872-.004 5.62 8.737-4.795v13.052l-8.737 5.114v5.715l21.789-12.879v-6.04l-7.443 4.638V20.818l7.443-3.883v-5.393l-4.099 2.049ZM22.544 4.962 7.874 12.62l14.582 8.685-3.58 1.857L.216 12.08 22.544 0l17.952 11.434-3.972 2.065-13.98-8.537Z" fill="#C4C4C4"/><path d="M22.546 5.07v16.18L8.092 12.62l14.454-7.55Z" fill="#12B8C2"/><path d="M22.542 21.25V5.07l13.914 8.506-13.914 7.673Z" fill="#fff"/><path d="M33.435 27.074v6.364l7.334-4.53-7.334-1.834Z" fill="#12B8C2"/><path d="M60.144 35.288c-1.648 0-3.072-.36-4.272-1.08-1.184-.736-2.104-1.752-2.76-3.048-.656-1.312-.984-2.832-.984-4.56 0-1.712.328-3.216.984-4.512.656-1.312 1.576-2.336 2.76-3.072 1.2-.736 2.624-1.104 4.272-1.104 1.92 0 3.48.464 4.68 1.392 1.216.912 1.992 2.192 2.328 3.84H64.92c-.256-1.04-.784-1.872-1.584-2.496-.784-.64-1.848-.96-3.192-.96-1.2 0-2.248.28-3.144.84-.896.544-1.592 1.336-2.088 2.376-.48 1.024-.72 2.256-.72 3.696 0 1.44.24 2.68.72 3.72.496 1.024 1.192 1.816 2.088 2.376.896.544 1.944.816 3.144.816 1.344 0 2.408-.304 3.192-.912.8-.624 1.328-1.448 1.584-2.472h2.232c-.336 1.616-1.112 2.88-2.328 3.792-1.2.912-2.76 1.368-4.68 1.368Zm17.537 0c-1.648 0-3.096-.36-4.344-1.08-1.232-.736-2.2-1.76-2.904-3.072-.688-1.312-1.032-2.824-1.032-4.536 0-1.712.344-3.216 1.032-4.512.704-1.312 1.672-2.336 2.904-3.072 1.248-.736 2.696-1.104 4.344-1.104 1.664 0 3.112.368 4.344 1.104a7.572 7.572 0 0 1 2.904 3.072c.688 1.296 1.032 2.8 1.032 4.512 0 1.712-.344 3.224-1.032 4.536a7.572 7.572 0 0 1-2.904 3.072c-1.232.72-2.68 1.08-4.344 1.08Zm0-1.776c1.232 0 2.312-.272 3.24-.816.944-.56 1.672-1.352 2.184-2.376.528-1.04.792-2.28.792-3.72 0-1.44-.264-2.672-.792-3.696-.512-1.024-1.24-1.808-2.184-2.352-.928-.56-2.008-.84-3.24-.84-1.232 0-2.32.28-3.264.84-.928.544-1.656 1.328-2.184 2.352-.512 1.024-.768 2.256-.768 3.696 0 1.44.256 2.68.768 3.72.528 1.024 1.256 1.816 2.184 2.376.944.544 2.032.816 3.264.816ZM88.87 35V18.2h2.016l8.952 13.464V18.2h2.016V35h-2.016l-8.952-13.464V35H88.87Zm23.915.288c-1.648 0-3.072-.36-4.272-1.08-1.184-.736-2.104-1.752-2.76-3.048-.656-1.312-.984-2.832-.984-4.56 0-1.712.328-3.216.984-4.512.656-1.312 1.576-2.336 2.76-3.072 1.2-.736 2.624-1.104 4.272-1.104 1.92 0 3.48.464 4.68 1.392 1.216.912 1.992 2.192 2.328 3.84h-2.232c-.256-1.04-.784-1.872-1.584-2.496-.784-.64-1.848-.96-3.192-.96-1.2 0-2.248.28-3.144.84-.896.544-1.592 1.336-2.088 2.376-.48 1.024-.72 2.256-.72 3.696 0 1.44.24 2.68.72 3.72.496 1.024 1.192 1.816 2.088 2.376.896.544 1.944.816 3.144.816 1.344 0 2.408-.304 3.192-.912.8-.624 1.328-1.448 1.584-2.472h2.232c-.336 1.616-1.112 2.88-2.328 3.792-1.2.912-2.76 1.368-4.68 1.368ZM122.69 35V18.2h10.392v1.656h-8.376v5.856h7.656v1.632h-7.656v6h8.376V35H122.69Zm13.547 0V18.2h2.016V35h-2.016Zm9.514 0V19.856h-5.016V18.2h12.048v1.656h-5.016V35h-2.016Zm16.259.288c-1.648 0-3.096-.36-4.344-1.08-1.232-.736-2.2-1.76-2.904-3.072-.688-1.312-1.032-2.824-1.032-4.536 0-1.712.344-3.216 1.032-4.512.704-1.312 1.672-2.336 2.904-3.072 1.248-.736 2.696-1.104 4.344-1.104 1.664 0 3.112.368 4.344 1.104a7.572 7.572 0 0 1 2.904 3.072c.688 1.296 1.032 2.8 1.032 4.512 0 1.712-.344 3.224-1.032 4.536a7.572 7.572 0 0 1-2.904 3.072c-1.232.72-2.68 1.08-4.344 1.08Zm0-1.776c1.232 0 2.312-.272 3.24-.816.944-.56 1.672-1.352 2.184-2.376.528-1.04.792-2.28.792-3.72 0-1.44-.264-2.672-.792-3.696-.512-1.024-1.24-1.808-2.184-2.352-.928-.56-2.008-.84-3.24-.84-1.232 0-2.32.28-3.264.84-.928.544-1.656 1.328-2.184 2.352-.512 1.024-.768 2.256-.768 3.696 0 1.44.256 2.68.768 3.72.528 1.024 1.256 1.816 2.184 2.376.944.544 2.032.816 3.264.816Z" fill="#fff"/></svg>